HIERARCHY
ROOT hip
{
	OFFSET 0.000000 0.000000 0.000000
	CHANNELS 6 Xposition Yposition Zposition Zrotation Yrotation Xrotation 
	JOINT lhipjoint
	{
		OFFSET 0.000000 0.000000 0.000000
		CHANNELS 3 Zrotation Yrotation Xrotation
		JOINT lfemur
		{
			OFFSET 1.363060 -1.794630 0.839290
			CHANNELS 3 Zrotation Yrotation Xrotation
			JOINT ltibia
			{
				OFFSET 2.448110 -6.726130 0.000000
				CHANNELS 3 Zrotation Yrotation Xrotation
				JOINT lfoot
				{
					OFFSET 2.562200 -7.039590 0.000000
					CHANNELS 3 Zrotation Yrotation Xrotation
					JOINT ltoes
					{
						OFFSET 0.157640 -0.433110 2.322550
						CHANNELS 3 Zrotation Yrotation Xrotation
						End Site
						{
							OFFSET 0.000000 0.000000 0.000000
						}
					}
				}
			}
		}
	}
	JOINT rhipjoint
	{
		OFFSET 0.000000 0.000000 0.000000
		CHANNELS 3 Zrotation Yrotation Xrotation
		JOINT rfemur
		{
			OFFSET -1.305520 -1.794630 0.839290
			CHANNELS 3 Zrotation Yrotation Xrotation
			JOINT rtibia
			{
				OFFSET -2.542530 -6.985550 0.000000
				CHANNELS 3 Zrotation Yrotation Xrotation
				JOINT rfoot
				{
					OFFSET -2.568260 -7.056230 0.000000
					CHANNELS 3 Zrotation Yrotation Xrotation
					JOINT rtoes
					{
						OFFSET -0.164730 -0.452590 2.363150
						CHANNELS 3 Zrotation Yrotation Xrotation
						End Site
						{
							OFFSET 0.000000 0.000000 0.000000
						}
					}
				}
			}
		}
	}
	JOINT lowerback
	{
		OFFSET 0.000000 0.000000 0.000000
		CHANNELS 3 Zrotation Yrotation Xrotation
		JOINT upperback
		{
			OFFSET 0.028270 2.035590 -0.193380
			CHANNELS 3 Zrotation Yrotation Xrotation
			JOINT thorax
			{
				OFFSET 0.056720 2.048850 -0.042750
				CHANNELS 3 Zrotation Yrotation Xrotation
				JOINT lowerneck
				{
					OFFSET 0.000000 0.000000 0.000000
					CHANNELS 3 Zrotation Yrotation Xrotation
					JOINT upperneck
					{
						OFFSET -0.054170 1.746240 0.172020
						CHANNELS 3 Zrotation Yrotation Xrotation
						JOINT head
						{
							OFFSET 0.104070 1.761360 -0.123970
							CHANNELS 3 Zrotation Yrotation Xrotation
							End Site
							{
								OFFSET 0.000000 0.000000 0.000000
							}
						}
					}
				}
				JOINT lclavicle
				{
					OFFSET 0.000000 0.000000 0.000000
					CHANNELS 3 Zrotation Yrotation Xrotation
					JOINT lhumerus
					{
						OFFSET 3.362410 1.200890 -0.311210
						CHANNELS 3 Zrotation Yrotation Xrotation
						JOINT lradius
						{
							OFFSET 4.983000 -0.000000 -0.000000
							CHANNELS 3 Zrotation Yrotation Xrotation
							JOINT lwrist
							{
								OFFSET 3.483560 -0.000000 -0.000000
								CHANNELS 3 Zrotation Yrotation Xrotation
								JOINT lhand
								{
									OFFSET 0.000000 0.000000 0.000000
									CHANNELS 3 Zrotation Yrotation Xrotation
									JOINT lfingers
									{
										OFFSET 0.715260 -0.000000 -0.000000
										CHANNELS 3 Zrotation Yrotation Xrotation
										End Site
										{
											OFFSET 0.000000 0.000000 0.000000
										}
									}
								}
								JOINT lthumb
								{
									OFFSET 0.000000 0.000000 0.000000
									CHANNELS 3 Zrotation Yrotation Xrotation
									End Site
									{
										OFFSET 0.000000 0.000000 0.000000
									}
								}
							}
						}
					}
				}
				JOINT rclavicle
				{
					OFFSET 0.000000 0.000000 0.000000
					CHANNELS 3 Zrotation Yrotation Xrotation
					JOINT rhumerus
					{
						OFFSET -3.136600 1.374050 -0.404650
						CHANNELS 3 Zrotation Yrotation Xrotation
						JOINT rradius
						{
							OFFSET -5.241900 -0.000000 -0.000000
							CHANNELS 3 Zrotation Yrotation Xrotation
							JOINT rwrist
							{
								OFFSET -3.444170 -0.000000 -0.000000
								CHANNELS 3 Zrotation Yrotation Xrotation
								JOINT rhand
								{
									OFFSET 0.000000 0.000000 0.000000
									CHANNELS 3 Zrotation Yrotation Xrotation
									JOINT rfingers
									{
										OFFSET -0.622530 -0.000000 -0.000000
										CHANNELS 3 Zrotation Yrotation Xrotation
										End Site
										{
											OFFSET 0.000000 0.000000 0.000000
										}
									}
								}
								JOINT rthumb
								{
									OFFSET 0.000000 0.000000 0.000000
									CHANNELS 3 Zrotation Yrotation Xrotation
									End Site
									{
										OFFSET 0.000000 0.000000 0.000000
									}
								}
							}
						}
					}
				}
			}
		}
	}
}
MOTION
Frames: 12
Frame Time: 0.008333
1.781891 18.072380 19.026950 -0.471014 11.927834 -5.366255 8.539843 6.377413 2.490323 -27.727082 -20.367346 2.123631 1.207142 7.481918 28.718019 -0.787341 4.768666 2.070444 0.465500 -4.376100 -12.137300 -9.233876 -6.864718 1.875543 32.036290 18.642028 7.618523 -1.046949 -5.204832 22.937699 4.623547 -18.032596 -18.160894 -0.248800 3.209500 -8.862700 1.575198 4.729234 1.188689 -0.569637 6.188401 -1.378192 -8.463699 4.229247 0.749885 -2.514343 -4.487981 -0.715624 4.121896 -6.347261 9.597149 2.362000 -3.108200 2.981500 4.279780 -2.815227 2.863014 -85.357126 -0.879177 -29.624517 2.136840 -11.018450 -0.719949 -0.420162 -0.435433 50.260197 11.981749 -5.322404 -0.992700 -7.125000 0.000000 0.000000 -11.030400 25.155400 5.390900 -2.081995 4.721565 2.672325 -11.190086 51.887686 -31.124348 -1.809405 22.447549 -1.640361 -0.353907 0.930568 13.055194 11.854774 13.198475 2.690400 7.125000 0.000000 0.000000 26.656300 -17.890900 19.406300 
1.774605 18.071969 19.035672 -0.470229 12.146824 -5.329138 8.539545 6.370445 2.487130 -27.673579 -20.413565 2.068807 1.204438 7.485757 28.725886 -0.709377 4.578896 2.159344 0.466200 -4.379700 -12.147300 -9.235411 -6.865817 1.872808 32.091508 18.624261 7.662331 -1.044843 -5.196311 22.927797 4.619905 -18.097881 -18.395633 -0.242600 3.169700 -8.751600 1.525191 4.734228 1.141175 -0.571521 6.189315 -1.374903 -8.442773 4.232366 0.758768 -2.548882 -4.516139 -0.707588 4.133769 -6.385419 9.603095 2.385200 -3.128600 2.996100 4.273954 -2.833867 2.892467 -85.416610 -0.856176 -28.966310 2.177440 -11.232116 -0.735070 -0.416615 -0.428510 49.665973 11.947933 -5.378448 -1.003800 -7.125000 0.000000 0.000000 -11.043700 25.093000 5.414000 -2.089549 4.741762 2.574876 -10.686673 51.783088 -30.038307 -1.934938 22.602572 -1.690485 -0.373288 0.964617 12.787302 12.933669 13.329126 2.958700 7.125000 0.000000 0.000000 27.303000 -17.761100 20.104100 
1.767114 18.071251 19.043985 -0.471989 12.386903 -5.302427 8.538737 6.362144 2.483500 -27.628477 -20.475099 2.032836 1.202043 7.488267 28.731479 -0.643512 4.418170 2.229632 0.475600 -4.422800 -12.269200 -9.238904 -6.868118 1.871018 32.162036 18.615917 7.716337 -1.043177 -5.188733 22.921218 4.631278 -18.209399 -18.644956 -0.238400 3.142400 -8.675400 1.472818 4.737132 1.110332 -0.571498 6.184832 -1.372652 -8.412777 4.231890 0.743024 -2.600410 -4.545233 -0.675317 4.143239 -6.424263 9.604027 2.411200 -3.150300 3.004100 4.269252 -2.871699 2.926619 -85.494053 -0.826188 -28.335921 2.213804 -11.435499 -0.749242 -0.413566 -0.422936 49.150913 11.923667 -5.451768 -1.018800 -7.125000 0.000000 0.000000 -11.050000 25.014300 5.437800 -2.098240 4.782882 2.460894 -10.071715 51.551053 -28.357024 -2.248445 22.904811 -1.757214 -0.402166 0.999695 11.985263 13.611479 13.337325 3.109700 7.125000 0.000000 0.000000 27.727200 -17.758900 20.512800 
1.760341 18.070943 19.052605 -0.471316 12.610964 -5.264783 8.538419 6.353469 2.480037 -27.591404 -20.557435 1.995620 1.199487 7.491528 28.736679 -0.580330 4.263932 2.300304 0.476200 -4.425400 -12.276800 -9.240410 -6.871517 1.867528 32.204121 18.572405 7.736134 -1.041252 -5.182442 22.912567 4.635280 -18.285644 -18.843971 -0.235600 3.123900 -8.624000 1.420721 4.737850 1.057767 -0.571601 6.178283 -1.369319 -8.390304 4.232823 0.752437 -2.634605 -4.564208 -0.674979 4.155836 -6.451749 9.611319 2.429800 -3.164700 3.020400 4.265014 -2.903087 2.955864 -85.562688 -0.829803 -27.841129 2.242585 -11.598720 -0.760571 -0.411918 -0.419111 48.735620 11.907407 -5.524363 -1.033800 -7.125000 0.000000 0.000000 -11.051700 24.938200 5.458500 -2.101624 4.819843 2.356745 -9.494959 51.266124 -26.442652 -2.671623 23.287521 -1.827903 -0.434964 1.029664 10.868421 13.891275 13.269826 3.151300 7.125000 0.000000 0.000000 27.925300 -17.840000 20.646300 
1.754389 18.070020 19.060814 -0.459318 12.839492 -5.245745 8.537928 6.345362 2.474535 -27.569238 -20.598549 1.972993 1.198085 7.494294 28.746612 -0.516795 4.107418 2.374088 0.481400 -4.449500 -12.344800 -9.243909 -6.874009 1.863843 32.260824 18.570368 7.808586 -1.039935 -5.173563 22.905150 4.641914 -18.388895 -19.101271 -0.231700 3.098300 -8.552600 1.362726 4.738727 1.020882 -0.570101 6.170198 -1.364195 -8.351525 4.232539 0.759498 -2.677364 -4.586115 -0.643770 4.157272 -6.482669 9.621689 2.441300 -3.181600 3.019700 4.265664 -2.935260 2.986864 -85.665789 -0.815172 -27.373030 2.267030 -11.762148 -0.771501 -0.412690 -0.417799 48.395746 11.897032 -5.654783 -1.060600 -7.125000 0.000000 0.000000 -11.045500 24.807500 5.489600 -2.102334 4.854857 2.270584 -8.968196 50.943029 -24.471045 -3.135784 23.675897 -1.890722 -0.468627 1.050432 9.608639 13.786634 13.176926 3.100700 7.125000 0.000000 0.000000 27.896200 -17.955800 20.534600 
1.747924 18.069507 19.068613 -0.458538 13.059514 -5.215712 8.536638 6.336948 2.468923 -27.519723 -20.649511 1.921523 1.195639 7.498560 28.754520 -0.447381 3.937873 2.451725 0.482600 -4.454600 -12.359200 -9.246623 -6.875992 1.859464 32.313707 18.550081 7.839496 -1.037765 -5.166849 22.895342 4.653307 -18.488422 -19.304796 -0.233900 3.112500 -8.592200 1.299899 4.738822 0.938816 -0.568469 6.162775 -1.357835 -8.305654 4.231528 0.788057 -2.700887 -4.606005 -0.603668 4.162678 -6.512393 9.629085 2.446500 -3.196700 2.999700 4.270142 -2.954500 3.017865 -85.759470 -0.827877 -27.016234 2.283088 -11.894942 -0.780260 -0.415929 -0.417782 48.163766 11.876777 -5.791428 -1.087100 -7.125000 0.000000 0.000000 -11.046900 24.673600 5.525400 -2.098934 4.873486 2.198992 -8.476306 50.666342 -22.775474 -3.556568 24.005248 -1.939252 -0.495195 1.061989 8.507200 13.415494 13.042268 2.982700 7.125000 0.000000 0.000000 27.710200 -18.113000 20.243100 
1.742382 18.068891 19.076926 -0.458810 13.271378 -5.186664 8.536228 6.330197 2.464517 -27.481317 -20.692880 1.880510 1.194013 7.502795 28.764874 -0.380937 3.774539 2.525251 0.487100 -4.475300 -12.417700 -9.248300 -6.878199 1.854484 32.358983 18.515047 7.874289 -1.035647 -5.159088 22.884217 4.657708 -18.566058 -19.498256 -0.230600 3.090500 -8.530900 1.246441 4.732787 0.853110 -0.567830 6.149340 -1.352326 -8.276557 4.224876 0.800530 -2.699517 -4.616973 -0.521045 4.168195 -6.530319 9.630711 2.447400 -3.205400 2.954200 4.273892 -2.970010 3.052724 -85.845396 -0.808802 -26.670971 2.306055 -12.030602 -0.789531 -0.418621 -0.417110 47.911166 11.855172 -5.913306 -1.110600 -7.125000 0.000000 0.000000 -11.050200 24.553400 5.558400 -2.096765 4.886005 2.132636 -8.000881 50.494261 -21.506864 -3.827308 24.194805 -1.959034 -0.512510 1.061065 7.857248 12.883654 13.018965 2.861500 7.125000 0.000000 0.000000 27.400300 -18.160600 19.915700 
1.736841 18.068378 19.084417 -0.459163 13.487584 -5.157547 8.535121 6.322905 2.460695 -27.441701 -20.757538 1.838170 1.192354 7.507722 28.775041 -0.317429 3.618997 2.584764 0.488100 -4.479700 -12.430300 -9.251293 -6.879679 1.849152 32.410990 18.484377 7.916064 -1.033133 -5.149936 22.870795 4.660322 -18.646715 -19.711455 -0.227400 3.069200 -8.471400 1.187364 4.720902 0.772569 -0.565741 6.127483 -1.347590 -8.224870 4.212604 0.813138 -2.722506 -4.627329 -0.445770 4.177460 -6.546511 9.633802 2.457900 -3.214500 2.917600 4.281472 -2.982979 3.082525 -85.956302 -0.805312 -26.419328 2.319902 -12.136512 -0.796487 -0.421291 -0.418345 47.758201 11.857106 -6.039495 -1.136700 -7.125000 0.000000 0.000000 -11.037800 24.429800 5.584200 -2.098952 4.893202 2.074415 -7.578058 50.364217 -20.514990 -4.038511 24.327086 -1.968906 -0.525472 1.054904 7.378027 12.305990 13.014822 2.736600 7.125000 0.000000 0.000000 27.054600 -18.184800 19.575100 
1.733044 18.067865 19.091600 -0.459670 13.683187 -5.126942 8.535062 6.316606 2.456034 -27.416158 -20.812302 1.804672 1.191596 7.512940 28.786614 -0.266951 3.495269 2.626806 0.497300 -4.521300 -12.548200 -9.254076 -6.879532 1.843763 32.458598 18.474406 7.960702 -1.030177 -5.139893 22.854110 4.663912 -18.729177 -19.919590 -0.224900 3.052800 -8.425800 1.145292 4.716121 0.679974 -0.564367 6.117571 -1.340828 -8.190073 4.209088 0.854182 -2.712190 -4.642194 -0.401200 4.170082 -6.570396 9.645526 2.442700 -3.225200 2.885800 4.293309 -2.983773 3.106728 -86.054134 -0.833163 -26.311322 2.312130 -12.184260 -0.797648 -0.429035 -0.424476 47.800184 11.850459 -6.231603 -1.174000 -7.125000 0.000000 0.000000 -11.029100 24.247500 5.627100 -2.092635 4.889729 2.032255 -7.232129 50.232175 -19.714419 -4.210289 24.427894 -1.976001 -0.534805 1.048842 6.992840 11.803552 12.974392 2.620300 7.125000 0.000000 0.000000 26.757900 -18.237100 19.264400 
1.728734 18.067146 19.098271 -0.460112 13.865084 -5.108144 8.534091 6.311988 2.453067 -27.374378 -20.835924 1.762436 1.190464 7.517752 28.800373 -0.196735 3.321826 2.696774 0.497800 -4.523200 -12.553400 -9.256481 -6.879990 1.839167 32.505041 18.454519 8.006558 -1.027324 -5.129715 22.837463 4.667227 -18.803826 -20.106045 -0.222200 3.034300 -8.374300 1.101500 4.697191 0.618671 -0.562947 6.088319 -1.337499 -8.155159 4.193216 0.867692 -2.713485 -4.642647 -0.356796 4.161375 -6.573216 9.653899 2.432400 -3.226400 2.863900 4.306443 -2.987777 3.125949 -86.174223 -0.852333 -26.288607 2.314777 -12.219783 -0.798885 -0.432971 -0.430789 47.890585 11.900939 -6.376784 -1.207700 -7.125000 0.000000 0.000000 -10.984100 24.108200 5.639400 -2.095377 4.888051 1.986321 -6.922172 50.215574 -19.339194 -4.252593 24.431775 -1.969347 -0.537664 1.040781 6.974771 11.437474 13.012342 2.551600 7.125000 0.000000 0.000000 26.527500 -18.207400 19.073300 
1.725758 18.066736 19.104941 -0.459033 14.040344 -5.077894 8.534465 6.306629 2.449884 -27.358078 -20.907474 1.741120 1.189802 7.522339 28.809508 -0.156900 3.223826 2.735050 0.498700 -4.527200 -12.564800 -9.259550 -6.878348 1.834578 32.552639 18.458932 8.054873 -1.024838 -5.120227 22.822716 4.668832 -18.881121 -20.310319 -0.219100 3.013300 -8.315700 1.067663 4.689274 0.539759 -0.561853 6.075824 -1.332422 -8.122432 4.187234 0.904532 -2.703296 -4.657222 -0.325987 4.152351 -6.595304 9.657552 2.417600 -3.236200 2.835300 4.321224 -2.982216 3.143941 -86.295289 -0.874261 -26.206645 2.321120 -12.278287 -0.802432 -0.439768 -0.433276 47.932051 11.871756 -6.507393 -1.230700 -7.125000 0.000000 0.000000 -10.995200 23.984700 5.677300 -2.092471 4.877340 1.958719 -6.688463 50.180940 -19.180641 -4.246295 24.400693 -1.963205 -0.540043 1.035152 7.075302 11.226991 13.087575 2.523900 7.125000 0.000000 0.000000 26.386400 -18.138900 18.990500 
1.722782 18.066633 19.111098 -0.444301 14.187261 -5.059559 8.534088 6.303249 2.447906 -27.344123 -20.914776 1.704033 1.189358 7.526897 28.821553 -0.109145 3.105634 2.784329 0.503500 -4.548800 -12.626000 -9.260825 -6.878466 1.831269 32.570509 18.445284 8.088128 -1.022891 -5.112134 22.809543 4.669764 -18.937729 -20.461568 -0.216900 2.998300 -8.274000 1.016301 4.677051 0.482998 -0.561257 6.056910 -1.330699 -8.080906 4.175040 0.917825 -2.705082 -4.657936 -0.295243 4.145476 -6.598406 9.663982 2.407600 -3.237400 2.818800 4.340340 -2.979388 3.154196 -86.432641 -0.912245 -26.379050 2.316354 -12.262182 -0.800608 -0.445986 -0.440518 48.220739 11.913402 -6.633673 -1.259100 -7.125000 0.000000 0.000000 -10.959500 23.866600 5.688600 -2.097383 4.866749 1.933122 -6.511676 50.240072 -19.357456 -4.144102 24.299483 -1.947672 -0.535347 1.031272 7.361598 11.197512 13.141265 2.529800 7.125000 0.000000 0.000000 26.357500 -18.084700 19.000400 
